HIERARCHY
ROOT hip
{
  OFFSET 0 0 0
  CHANNELS 6 Xposition Yposition Zposition Zrotation Yrotation Xrotation
  JOINT abdomen
  {
    OFFSET 0 20.6881 -0.73152
    CHANNELS 3 Zrotation Xrotation Yrotation
    JOINT chest
    {
      OFFSET 0 11.7043 -0.48768
      CHANNELS 3 Zrotation Xrotation Yrotation
      JOINT neck
      {
        OFFSET 0 22.1894 -2.19456
        CHANNELS 3 Zrotation Xrotation Yrotation
        JOINT head
        {
          OFFSET -0.24384 7.07133 1.2192
          CHANNELS 3 Zrotation Xrotation Yrotation
          JOINT leftEye
          {
            OFFSET 4.14528 8.04674 8.04672
            CHANNELS 3 Zrotation Xrotation Yrotation
            End Site
            {
              OFFSET 1 0 0
            }
          }
          JOINT rightEye
          {
            OFFSET -3.6576 8.04674 8.04672
            CHANNELS 3 Zrotation Xrotation Yrotation
            End Site
            {
              OFFSET 1 0 0
            }
          }
        }
      }
      JOINT rCollar
      {
        OFFSET -2.68224 19.2634 -4.8768
        CHANNELS 3 Zrotation Xrotation Yrotation
        JOINT rShldr
        {
          OFFSET -8.77824 -1.95073 1.46304
          CHANNELS 3 Zrotation Xrotation Yrotation
          JOINT rForeArm
          {
            OFFSET -28.1742 -1.7115 0.48768
            CHANNELS 3 Zrotation Xrotation Yrotation
            JOINT rHand
            {
              OFFSET -22.5879 0.773209 7.07136
              CHANNELS 3 Zrotation Xrotation Yrotation
              JOINT rThumb1
              {
                OFFSET -1.2192 -0.487915 3.41376
                CHANNELS 3 Zrotation Xrotation Yrotation
                JOINT rThumb2
                {
                  OFFSET -3.37035 -0.52449 3.41376
                  CHANNELS 3 Zrotation Xrotation Yrotation
                  End Site
                  {
                    OFFSET -1.78271 -1.18214 1.43049
                  }
                }
              }
              JOINT rIndex1
              {
                OFFSET -7.75947 0.938293 5.60832
                CHANNELS 3 Zrotation Xrotation Yrotation
                JOINT rIndex2
                {
                  OFFSET -2.54057 -0.884171 1.56538
                  CHANNELS 3 Zrotation Xrotation Yrotation
                  End Site
                  {
                    OFFSET -1.62519 -0.234802 1.16502
                  }
                }
              }
              JOINT rMid1
              {
                OFFSET -8.24714 1.18213 3.41376
                CHANNELS 3 Zrotation Xrotation Yrotation
                JOINT rMid2
                {
                  OFFSET -3.10165 -0.590103 1.0647
                  CHANNELS 3 Zrotation Xrotation Yrotation
                  End Site
                  {
                    OFFSET -2.48547 -0.328903 0.83742
                  }
                }
              }
              JOINT rRing1
              {
                OFFSET -8.82822 0.546677 1.51678
                CHANNELS 3 Zrotation Xrotation Yrotation
                JOINT rRing2
                {
                  OFFSET -2.60934 -0.819778 -0.0198488
                  CHANNELS 3 Zrotation Xrotation Yrotation
                  End Site
                  {
                    OFFSET -2.33842 -0.294052 0.168128
                  }
                }
              }
              JOINT rPinky1
              {
                OFFSET -8.27202 -0.0477905 -0.4584
                CHANNELS 3 Zrotation Xrotation Yrotation
                JOINT rPinky2
                {
                  OFFSET -1.82734 -0.647385 -0.700984
                  CHANNELS 3 Zrotation Xrotation Yrotation
                  End Site
                  {
                    OFFSET -1.69225 -0.51767 -0.607171
                  }
                }
              }
            }
          }
        }
      }
      JOINT lCollar
      {
        OFFSET 2.68224 19.2634 -4.8768
        CHANNELS 3 Zrotation Xrotation Yrotation
        JOINT lShldr
        {
          OFFSET 8.77824 -1.95073 1.46304
          CHANNELS 3 Zrotation Xrotation Yrotation
          JOINT lForeArm
          {
            OFFSET 28.1742 -1.7115 0.48768
            CHANNELS 3 Zrotation Xrotation Yrotation
            JOINT lHand
            {
              OFFSET 22.5879 0.773209 7.07136
              CHANNELS 3 Zrotation Xrotation Yrotation
              JOINT lThumb1
              {
                OFFSET 1.2192 -0.487915 3.41376
                CHANNELS 3 Zrotation Xrotation Yrotation
                JOINT lThumb2
                {
                  OFFSET 3.37035 -0.52449 3.41376
                  CHANNELS 3 Zrotation Xrotation Yrotation
                  End Site
                  {
                    OFFSET 1.78271 -1.18214 1.43049
                  }
                }
              }
              JOINT lIndex1
              {
                OFFSET 7.75947 0.938293 5.60832
                CHANNELS 3 Zrotation Xrotation Yrotation
                JOINT lIndex2
                {
                  OFFSET 2.54057 -0.884171 1.56538
                  CHANNELS 3 Zrotation Xrotation Yrotation
                  End Site
                  {
                    OFFSET 1.62519 -0.234802 1.16502
                  }
                }
              }
              JOINT lMid1
              {
                OFFSET 8.24714 1.18213 3.41376
                CHANNELS 3 Zrotation Xrotation Yrotation
                JOINT lMid2
                {
                  OFFSET 3.10165 -0.590103 1.0647
                  CHANNELS 3 Zrotation Xrotation Yrotation
                  End Site
                  {
                    OFFSET 2.48547 -0.328903 0.83742
                  }
                }
              }
              JOINT lRing1
              {
                OFFSET 8.82822 0.546677 1.51678
                CHANNELS 3 Zrotation Xrotation Yrotation
                JOINT lRing2
                {
                  OFFSET 2.60934 -0.819778 -0.0198488
                  CHANNELS 3 Zrotation Xrotation Yrotation
                  End Site
                  {
                    OFFSET 2.33842 -0.294052 0.168128
                  }
                }
              }
              JOINT lPinky1
              {
                OFFSET 8.27202 -0.0477905 -0.4584
                CHANNELS 3 Zrotation Xrotation Yrotation
                JOINT lPinky2
                {
                  OFFSET 1.82734 -0.647385 -0.700984
                  CHANNELS 3 Zrotation Xrotation Yrotation
                  End Site
                  {
                    OFFSET 1.69225 -0.51767 -0.607171
                  }
                }
              }
            }
          }
        }
      }
    }
  }
  JOINT rButtock
  {
    OFFSET -8.77824 4.35084 1.2192
    CHANNELS 3 Zrotation Xrotation Yrotation
    JOINT rThigh
    {
      OFFSET 0 -1.70687 -2.19456
      CHANNELS 3 Zrotation Xrotation Yrotation
      JOINT rShin
      {
        OFFSET 0 -36.8199 0.73152
        CHANNELS 3 Zrotation Xrotation Yrotation
        JOINT rFoot
        {
          OFFSET 0.73152 -45.1104 -5.12064
          CHANNELS 3 Zrotation Xrotation Yrotation
          End Site
          {
            OFFSET -1.1221 -3.69964 12.103
          }
        }
      }
    }
  }
  JOINT lButtock
  {
    OFFSET 8.77824 4.35084 1.2192
    CHANNELS 3 Zrotation Xrotation Yrotation
    JOINT lThigh
    {
      OFFSET 0 -1.70687 -2.19456
      CHANNELS 3 Zrotation Xrotation Yrotation
      JOINT lShin
      {
        OFFSET 0 -36.8199 0.73152
        CHANNELS 3 Zrotation Xrotation Yrotation
        JOINT lFoot
        {
          OFFSET -0.73152 -45.1104 -5.12064
          CHANNELS 3 Zrotation Xrotation Yrotation
          End Site
          {
            OFFSET 1.1221 -3.69964 12.103
          }
        }
      }
    }
  }
}
MOTION
Frames:	6
Frame Time:	0.03333
-5.8729000000000005 -1.1726 98.41640000000001 -88.351345 -76.921967 143.875378 163.059853 14.384767 -120.648135 -162.980819 72.661628 0.514622 -144.107247 48.979859 133.403265 143.9159 49.553141 179.374725 127.796013 -14.326334 28.774017 11.804107 8.256471 69.844743 161.802297 8.925188 -50.956674 -15.964922 -55.80891 127.625583 142.695472 -81.221259 17.087592 -123.091357 45.547251 -81.27022 167.130328 42.391963 -11.880726 -39.752307 -1.431776 98.456651 13.139132 -48.402524 -178.088445 -145.606594 20.384986 108.965933 -173.72682 -46.441988 -136.592403 124.485328 -16.997233 -145.800348 -118.323069 -5.707009 -123.492852 35.577794 9.155356 144.008587 2.320805 7.879513 161.822945 -142.284124 22.698617 -58.434125 -100.678432 23.667655 123.802574 -177.724992 29.70472 -8.796336 -140.829043 22.889662 67.494686 77.854637 33.904248 -178.143716 106.214342 -55.007775 103.549002 -14.584908 -6.580899 79.859362 50.963878 -73.366593 179.091102 -160.322527 65.345134 63.53404 4.244065 29.841435 16.700951 -85.345188 -61.351515 -153.554182 -95.948946 -66.338213 91.3043 72.079716 40.914018 8.917012 -99.692755 25.568055 -60.231144 -51.633685 0.787881 -51.152607 74.373444 19.788546 -147.899859 15.21787 -56.815506 114.731601 -102.954802 13.994412 29.978315 -52.612373 0.654981 51.869992 -85.085728 -9.150581 74.485386 -40.376752 11.325527 11.160409 -145.360451 -15.486968 70.339947 -9.985847 25.527173 97.157455
-5.995 -1.1954 100.25649999999999 -89.017848 -76.461538 144.259695 163.407665 16.585746 -63.588358 112.673933 35.890971 97.310508 -168.343529 47.99123 -108.809629 111.250712 -35.753015 -128.464181 128.447457 -14.445155 29.409143 11.975883 8.351747 69.681436 176.813552 25.073589 -49.773874 -137.090409 -13.082876 19.382225 -7.20447 6.82275 90.024154 -18.979399 -74.220912 145.31622 46.003666 43.46522 100.432271 -114.109497 -38.657309 17.83478 78.59245 -65.447135 -111.024216 -172.62476 -26.231854 115.593117 177.082657 -39.900688 -145.700338 115.201591 -14.803475 -156.767014 -112.593116 -9.04447 -122.339525 -137.817731 -40.246536 28.834537 -21.348756 -29.309244 172.869641 36.791553 -31.11684 -64.19655 51.261478 16.649085 72.53401 -53.455173 -52.470021 128.975712 126.128138 32.429373 123.846021 35.915431 -15.038686 -116.073483 42.567703 37.529741 74.239636 13.168062 -14.319411 -110.705387 -76.484158 -13.210228 28.373191 175.753194 13.316641 4.838163 152.460718 73.436352 -139.501166 -157.774907 -12.282157 130.512456 -111.655805 -64.854768 74.58795 -125.24726 -17.671786 164.977745 -123.672582 -19.646915 -40.384363 -41.840761 -49.065514 30.959006 117.103979 -76.914975 17.294896 -141.21648 10.138829 -73.630677 113.41575 -48.824792 26.591914 62.133224 28.260784 -130.786947 -85.090056 -10.992634 73.247993 -40.186843 9.923329 63.394998 -156.623829 12.101478 -101.212305 -31.598709 26.246658 -20.95676
-6.1104 -1.1804000000000001 102.1117 -89.448658 -76.018848 144.347607 163.957941 14.187794 -117.016691 -178.404683 72.74269 17.270323 -160.473878 32.249654 -8.032647 -107.053875 -39.164264 45.261628 127.495358 -14.399519 28.733281 12.52135 8.607707 68.899853 -144.33913 52.590319 -66.140102 58.220208 -14.882273 -176.320547 161.98818 -19.58974 -99.035598 -14.807635 -43.760998 160.805847 179.833646 22.402857 -20.879652 29.469595 34.271109 20.973879 107.436039 -58.532666 -79.856938 32.219299 -43.605855 -2.624751 -49.202756 26.125522 -45.566834 -46.138468 -48.167097 177.177178 -95.208902 -17.974009 -110.53753 -149.716034 -6.39513 20.479156 69.254259 38.604164 105.874377 165.459271 -45.779577 -102.910639 -162.007615 -4.490257 119.781777 -28.181011 4.054099 -175.428885 173.756883 -56.155738 -61.036231 149.538472 -39.85469 67.645798 178.721215 -53.903171 166.21744 106.518837 -16.43552 142.401446 -16.157582 67.78182 -43.085517 -173.686196 -63.054896 125.859706 42.312507 -71.368969 64.564299 30.233789 -0.103137 -111.86391 -27.744298 -16.418158 167.248759 -70.090743 -31.597831 -108.3111 28.095169 -6.620769 179.976497 65.136113 24.935239 -13.608507 52.048119 -3.687822 -119.30386 -45.808149 -50.128624 -92.432619 104.826625 -34.326723 -10.689352 27.057269 8.464711 -111.737133 173.168998 9.577476 -90.314051 84.039301 43.20073 -175.380352 -172.318732 30.101067 -106.363238 62.620059 6.110792 -26.152147
-6.2261 -1.15 104.00940000000001 -89.428664 -75.919486 144.186187 164.226112 13.746012 -123.950329 -156.478175 71.802407 -6.571859 -147.699237 49.952041 159.262193 125.021862 33.057926 -156.564168 126.004542 -14.171874 27.423479 13.035547 8.826979 68.082777 8.811189 -0.241735 -145.504582 123.596162 -31.873935 -55.84673 -163.624822 -43.300147 -84.553665 -14.711451 -70.127305 150.181938 17.734129 -7.620906 114.705053 127.304242 -47.567821 140.49083 140.438087 26.413023 -32.181331 -10.380164 40.834447 3.408993 157.203894 -31.016666 -160.141729 -41.821545 72.324056 -72.317438 49.581841 41.777667 -53.437123 -140.442875 55.517124 -44.950598 -72.907207 -69.967454 150.198096 80.996679 -64.346061 8.990695 -149.567468 0.154009 122.13073 159.200757 -32.140954 -3.641707 -155.63107 -75.051617 121.657664 51.440032 19.775018 -145.587188 21.961922 63.385718 78.046003 -52.871907 6.363488 -72.928736 42.762387 61.699519 -105.907967 -169.916578 -40.839833 135.093288 40.491202 -72.633471 64.05813 143.834065 -48.004451 -64.297615 -161.534334 -36.928868 20.198228 -12.509431 32.961511 91.47327 28.059006 -5.10193 178.580831 67.821637 74.469691 -28.845662 74.946228 20.908377 -149.781246 21.272261 -56.243288 -124.807406 115.212095 47.747049 152.639617 -28.346466 3.09315 70.110267 173.653425 -0.453576 -82.888811 75.501757 38.088896 -12.096287 164.667645 -26.410763 43.640026 136.901468 -28.044453 -44.848016
-6.348199999999999 -1.1197000000000001 105.95589999999999 -89.040125 -76.149278 143.895743 161.573738 17.299078 17.454632 115.739735 -39.044025 126.370064 -140.249905 39.848131 88.149569 -151.171315 54.922173 113.816227 124.715041 -13.872567 26.154268 13.256831 8.894422 67.587207 136.288254 -15.516775 -62.095643 77.4938 55.467622 100.995049 -170.132636 -14.147684 -92.745662 -12.522699 -64.049319 154.171135 177.704522 18.126875 -20.919536 31.528264 33.621124 18.315906 -3.347827 -28.583654 167.726955 -2.843504 8.902506 3.282201 -54.947113 31.287951 -40.338882 98.170539 81.450505 3.529195 51.583084 43.293562 -57.214601 84.632756 -54.556631 -105.459174 125.12181 2.853774 57.89659 155.207103 0.148202 163.384056 -102.905748 20.561337 123.751142 -11.891572 14.382275 -170.708245 179.467049 -4.264355 -58.565331 150.030774 -34.646754 71.96356 25.878927 64.889482 66.405777 33.48876 -47.191985 -84.486393 -70.795023 38.27183 14.889917 -56.876025 -69.341053 -134.778007 5.143658 -30.362794 26.50765 175.557024 10.428995 -48.551 -25.402058 8.780702 178.340269 -74.591292 -10.709268 -94.173041 -117.428109 -7.37922 -38.815209 62.815906 48.082311 -177.630434 158.00367 -55.654965 77.430271 -175.328595 21.067908 -6.592972 -168.51632 -78.617104 22.524496 -99.219693 27.497318 63.778525 -82.807647 0.885595 83.922396 -50.906323 16.039615 106.56196 -177.591772 32.446378 -112.995789 51.514732 20.677017 -13.029444
-6.479799999999999 -1.0947 107.94500000000001 -88.42108 -76.554956 143.526108 163.328477 17.224878 -26.471072 107.155435 2.157453 108.727906 -164.676563 45.735155 -97.221914 116.115254 -53.042364 -113.277992 123.802553 -13.621867 25.218538 13.174157 8.817247 67.458147 65.358374 -31.728326 -110.455207 148.608008 0.749155 -3.065299 -168.939346 -50.023565 -88.69751 -11.693315 -61.191898 155.834374 169.854012 29.799236 -16.716672 32.095796 27.289619 30.151997 106.910817 -53.463254 -73.670473 25.757913 -43.524266 -9.004702 -25.617525 70.781941 -57.252378 156.36232 -36.240822 14.27131 -89.415888 -17.846599 -98.595149 -47.603641 -75.093492 90.254696 124.010691 2.365877 58.283504 148.139093 -8.551463 168.424866 42.023668 22.270567 76.726329 -39.324907 -46.95115 138.56795 6.060783 -11.885074 121.462252 147.921135 -44.047043 63.811133 -146.605298 19.989988 -142.948537 91.614478 -41.777673 40.958633 -15.969635 71.007071 -47.845699 179.248449 -60.195776 119.327624 0.773615 6.04238 18.358332 167.120277 46.84531 -52.611236 -29.884561 -26.873826 167.133822 -103.813082 -8.534171 -132.669135 -131.870613 -65.291487 -26.68742 131.659985 48.83825 87.273202 158.187049 -52.447823 79.939405 179.691401 19.910387 -179.719397 173.541959 68.004656 48.466621 118.344207 -7.539208 -94.593084 172.529746 2.352258 -84.788297 77.092741 40.918652 31.983014 175.988094 -27.021393 -122.176779 -15.886471 -15.994933 -144.726737
